<svg xmlns="http://www.w3.org/2000/svg" xmlns:xlink="http://www.w3.org/1999/xlink" viewBox="0 0 550 385"><defs><style>.cls-1{fill:url(#linear-gradient);}.cls-2{opacity:0.05;}.cls-3{fill:#bdc3c7;}.cls-4{fill:#4d4d4d;}.cls-5{fill:#231f20;}.cls-6{fill:#8e9295;}.cls-7,.cls-8{fill:#fff;}.cls-7{opacity:0.4;}.cls-9{fill:#d6c700;}.cls-10{fill:#fff100;}.cls-11{fill:#c40075;}.cls-12{fill:#ec008c;}.cls-13{fill:#0092c8;}.cls-14{fill:#00aeef;}</style><linearGradient id="linear-gradient" x1="41.25" y1="-41.25" x2="508.75" y2="426.25" gradientUnits="userSpaceOnUse"><stop offset="0" stop-color="#fff"/><stop offset="1" stop-color="#ccc"/></linearGradient></defs><title>free-vector-ink-cartridges</title><g id="design"><rect id="background" class="cls-1" width="550" height="385"/><g id="shadow"><path class="cls-2" d="M548.72,192.14a6952,6952,0,0,0-3-3,62854,62854,0,0,1-3-3,5632.45,5632.45,0,0,1-3-3,5691.62,5691.62,0,0,1-3-3,62566490,62566490,0,0,1-3-3,12513.05,12513.05,0,0,1-3-3,4171.78,4171.78,0,0,1-3-3,520419.23,520419.23,0,0,1-3-3,4171.6,4171.6,0,0,1-3-3,4174.17,4174.17,0,0,0-3-3,12525.68,12525.68,0,0,1-3-3,12516.06,12516.06,0,0,1-3-3,12848,12848,0,0,0-3-3,4142.9,4142.9,0,0,1-3-3,12506.74,12506.74,0,0,1-3-3A8.7,8.7,0,0,0,502.6,146a411622,411622,0,0,0-3-3,62524514.76,62524514.76,0,0,1-3-3,8.71,8.71,0,0,0-1.49-1.49,8.7,8.7,0,0,0-1.49-1.49,8.69,8.69,0,0,0-1.49-1.49,8.7,8.7,0,0,0-1.49-1.49,8.66,8.66,0,0,0-1.49-1.49,8.7,8.7,0,0,0-1.49-1.49,8.65,8.65,0,0,0-1.49-1.49,8.67,8.67,0,0,0-1.49-1.49,8.69,8.69,0,0,0-1.49-1.49,8.67,8.67,0,0,0-1.49-1.49,8.67,8.67,0,0,0-1.49-1.49,8.67,8.67,0,0,0-1.49-1.49,8.66,8.66,0,0,0-1.49-1.49,8.65,8.65,0,0,0-1.49-1.49,8.63,8.63,0,0,0-1.49-1.49,8.65,8.65,0,0,0-1.49-1.49,8.67,8.67,0,0,0-1.49-1.49,8.69,8.69,0,0,0-1.49-1.49,8.69,8.69,0,0,0-1.49-1.49,8.66,8.66,0,0,0-1.49-1.49,8.66,8.66,0,0,0-1.49-1.49,8.67,8.67,0,0,0-1.49-1.49,8.64,8.64,0,0,0-1.49-1.49,8.64,8.64,0,0,0-1.49-1.49,8.65,8.65,0,0,0-1.49-1.49A8.68,8.68,0,0,0,458,101.4a8.66,8.66,0,0,0-1.49-1.49A8.67,8.67,0,0,0,455,98.43a8.67,8.67,0,0,0-1.49-1.49A8.69,8.69,0,0,0,452,95.45,8.7,8.7,0,0,0,450.54,94,8.66,8.66,0,0,0,449,92.47,8.68,8.68,0,0,0,447.56,91a8.63,8.63,0,0,0-1.49-1.49A8.66,8.66,0,0,0,444.59,88a8.64,8.64,0,0,0-1.49-1.49A8.69,8.69,0,0,0,441.61,85a8.69,8.69,0,0,0-1.49-1.49,8.7,8.7,0,0,0-1.49-1.49,8.66,8.66,0,0,0-1.49-1.49,8.72,8.72,0,0,0-1.49-1.49,8.67,8.67,0,0,0-1.49-1.49,8.57,8.57,0,0,0-6.75-3.31H384.53A8.6,8.6,0,0,0,376,82.86v23.42c-.16-.15-.33-.29-.5-.42a8.69,8.69,0,0,0-1.49-1.49,8.7,8.7,0,0,0-1.49-1.49A8.7,8.7,0,0,0,371,101.4a8.69,8.69,0,0,0-1.49-1.49A8.71,8.71,0,0,0,368,98.42a8.7,8.7,0,0,0-1.49-1.49A8.66,8.66,0,0,0,365,95.45,8.66,8.66,0,0,0,363.55,94a8.66,8.66,0,0,0-1.49-1.49A8.66,8.66,0,0,0,360.58,91a8.63,8.63,0,0,0-1.49-1.49A8.66,8.66,0,0,0,357.6,88a8.66,8.66,0,0,0-1.49-1.49A8.68,8.68,0,0,0,354.63,85a8.67,8.67,0,0,0-1.49-1.49,8.67,8.67,0,0,0-1.49-1.49,8.69,8.69,0,0,0-1.49-1.49,8.69,8.69,0,0,0-1.49-1.49,8.7,8.7,0,0,0-1.49-1.49,8.57,8.57,0,0,0-6.75-3.31H297.55A8.6,8.6,0,0,0,289,82.86v23.42c-.16-.15-.33-.29-.5-.42a8.66,8.66,0,0,0-1.49-1.49,8.66,8.66,0,0,0-1.49-1.49A8.65,8.65,0,0,0,284,101.4a8.68,8.68,0,0,0-1.49-1.49A8.71,8.71,0,0,0,281,98.43a8.66,8.66,0,0,0-1.49-1.49,8.7,8.7,0,0,0-1.49-1.49A8.68,8.68,0,0,0,276.57,94a8.68,8.68,0,0,0-1.49-1.49A8.67,8.67,0,0,0,273.59,91a8.68,8.68,0,0,0-1.49-1.49A8.68,8.68,0,0,0,270.62,88a8.65,8.65,0,0,0-1.49-1.49A8.68,8.68,0,0,0,267.64,85a8.69,8.69,0,0,0-1.49-1.49,8.69,8.69,0,0,0-1.49-1.49,8.68,8.68,0,0,0-1.49-1.49,8.67,8.67,0,0,0-1.49-1.49,8.69,8.69,0,0,0-1.49-1.49,8.57,8.57,0,0,0-6.75-3.31H210.56A8.6,8.6,0,0,0,202,82.86v23.42c-.16-.15-.33-.29-.5-.42a8.67,8.67,0,0,0-1.49-1.49,8.67,8.67,0,0,0-1.49-1.49A8.67,8.67,0,0,0,197,101.4a8.67,8.67,0,0,0-1.49-1.49A8.65,8.65,0,0,0,194,98.42a8.66,8.66,0,0,0-1.49-1.49,8.7,8.7,0,0,0-1.49-1.49A8.68,8.68,0,0,0,189.58,94a8.67,8.67,0,0,0-1.49-1.49A8.67,8.67,0,0,0,186.61,91a8.68,8.68,0,0,0-1.49-1.49A8.71,8.71,0,0,0,183.64,88a8.69,8.69,0,0,0-1.49-1.49A8.71,8.71,0,0,0,180.66,85a8.71,8.71,0,0,0-1.49-1.49,8.67,8.67,0,0,0-1.49-1.49,8.67,8.67,0,0,0-1.49-1.49,8.67,8.67,0,0,0-1.49-1.49,8.68,8.68,0,0,0-1.49-1.49,8.57,8.57,0,0,0-6.75-3.31H123.58A8.6,8.6,0,0,0,115,82.86v163h.17a8.61,8.61,0,0,0,3.14,5,8.67,8.67,0,0,0,1.48,1.48,8.68,8.68,0,0,0,1.49,1.49,8.66,8.66,0,0,0,1.49,1.49,8.7,8.7,0,0,0,1.49,1.49,8.69,8.69,0,0,0,1.49,1.49,8.7,8.7,0,0,0,1.49,1.49,8.69,8.69,0,0,0,1.49,1.49,8.68,8.68,0,0,0,1.49,1.49,8.7,8.7,0,0,0,1.49,1.49,8.69,8.69,0,0,0,1.49,1.49,8.71,8.71,0,0,0,1.49,1.49,8.65,8.65,0,0,0,1.49,1.49,8.66,8.66,0,0,0,1.49,1.49,8.63,8.63,0,0,0,1.48,1.49,8.67,8.67,0,0,0,1.49,1.49,4181.2,4181.2,0,0,1,3,3,1181567.54,1181567.54,0,0,1,3,3,6287.35,6287.35,0,0,1,3,3,4466.74,4466.74,0,0,1,3,3,15509.32,15509.32,0,0,0,3,3,15929.2,15929.2,0,0,1,3,3,60401.27,60401.27,0,0,0,3,3,5685.29,5685.29,0,0,0,3,3,4815.27,4815.27,0,0,1,3,3,5711.44,5711.44,0,0,0,3,3,1739195.85,1739195.85,0,0,0,3,3,1605296.53,1605296.53,0,0,0,3,3,4165.1,4165.1,0,0,0,3,3,8.68,8.68,0,0,0,1.49,1.49,12520.67,12520.67,0,0,0,3,3,978259.46,978259.46,0,0,1,3,3,8.69,8.69,0,0,0,1.49,1.49,12514.36,12514.36,0,0,1,3,3,12529.09,12529.09,0,0,1,3,3,6256,6256,0,0,0,3,3,6238.53,6238.53,0,0,0,3,3,6939,6939,0,0,0,3,3,6988.16,6988.16,0,0,1,3,3,1331619.85,1331619.85,0,0,0,3,3,12567.09,12567.09,0,0,0,3,3,12514,12514,0,0,0,3,3,645447.3,645447.3,0,0,1,3,3,12507.65,12507.65,0,0,1,3,3,32128.08,32128.08,0,0,1,3,3,6284.49,6284.49,0,0,1,3,3,12526.58,12526.58,0,0,1,3,3,596274.34,596274.34,0,0,1,3,3,8.65,8.65,0,0,0,1.49,1.49,12527.38,12527.38,0,0,0,3,3,12510.15,12510.15,0,0,0,3,3,62629666.81,62629666.81,0,0,0,3,3,6296.76,6296.76,0,0,1,3,3,1137570.2,1137570.2,0,0,0,3,3,8.68,8.68,0,0,0,1.49,1.49,8.68,8.68,0,0,0,1.49,1.49l.2.22H550V193.4A8.71,8.71,0,0,0,548.72,192.14Z"/></g><g id="cartridges"><rect x="375.95" y="81.15" width="60.05" height="171.57" rx="8.58" ry="8.58"/><rect class="cls-3" x="375.95" y="74.28" width="60.05" height="171.57" rx="8.58" ry="8.58"/><rect class="cls-4" x="375.95" y="92.3" width="60.05" height="153.55"/><rect class="cls-5" x="375.95" y="136.05" width="60.05" height="109.8"/><rect class="cls-6" x="375.95" y="86.96" width="60.05" height="5.92"/><rect class="cls-7" x="375.95" y="85.2" width="60.05" height="2.57"/><circle class="cls-8" cx="405.98" cy="186.66" r="20.59"/><path class="cls-5" d="M405.57,188.31l-1,1.87v6.27h-3.21V176h3.21v8.89l4.2-8.89H412l-4.46,9.1L412,196.45h-3.29Z"/><path class="cls-5" d="M413.7,117a.3.3,0,0,1,0,0s0-.06,0-.09c-.2-6.35-7.72-12.61-7.72-12.61s-7.51,6.26-7.72,12.61c0,0,0,.06,0,.09v0s0,.09,0,.13,0,.1,0,.14h0a7.72,7.72,0,0,0,15.44,0h0s0-.1,0-.14Zm-2.57.23h0a5.15,5.15,0,0,1-5.15,5,5.2,5.2,0,0,1-.74-.05,9.54,9.54,0,0,0,4.67-8.21,9.82,9.82,0,0,0-.07-1.16,9.43,9.43,0,0,1,1.29,4.09h0v.27Z"/><rect class="cls-9" x="288.97" y="81.15" width="60.05" height="171.57" rx="8.58" ry="8.58"/><rect class="cls-3" x="288.97" y="74.28" width="60.05" height="171.57" rx="8.58" ry="8.58"/><rect class="cls-4" x="288.97" y="92.3" width="60.05" height="153.55"/><rect class="cls-10" x="288.97" y="136.05" width="60.05" height="109.8"/><rect class="cls-6" x="288.97" y="86.96" width="60.05" height="5.92"/><rect class="cls-7" x="288.97" y="85.2" width="60.05" height="2.57"/><circle class="cls-4" cx="318.99" cy="186.66" r="20.59"/><path class="cls-10" d="M317.38,189.68,313.33,176h3.35l2.45,9.3,2.45-9.3h3.06l-4.05,13.65v6.76h-3.21Z"/><path class="cls-10" d="M326.71,117s0,0,0,0,0-.06,0-.09c-.2-6.35-7.72-12.61-7.72-12.61s-7.51,6.26-7.72,12.61c0,0,0,.06,0,.09v0s0,.09,0,.13,0,.1,0,.14h0a7.72,7.72,0,0,0,15.44,0h0s0-.1,0-.14Zm-2.57.23h0a5.15,5.15,0,0,1-5.15,5,5.22,5.22,0,0,1-.74-.05,9.54,9.54,0,0,0,4.67-8.21,9.82,9.82,0,0,0-.07-1.16,9.44,9.44,0,0,1,1.29,4.09h0v.27Z"/><rect class="cls-11" x="201.98" y="81.15" width="60.05" height="171.57" rx="8.58" ry="8.58"/><rect class="cls-3" x="201.98" y="74.28" width="60.05" height="171.57" rx="8.58" ry="8.58"/><rect class="cls-4" x="201.98" y="92.3" width="60.05" height="153.55"/><rect class="cls-12" x="201.98" y="136.05" width="60.05" height="109.8"/><rect class="cls-6" x="201.98" y="86.96" width="60.05" height="5.92"/><rect class="cls-7" x="201.98" y="85.2" width="60.05" height="2.57"/><circle class="cls-4" cx="232.01" cy="186.66" r="20.59"/><path class="cls-12" d="M232.08,190.53,234.27,176h4.46v20.41h-3V181.81l-2.22,14.64h-3L228.06,182v14.43h-2.8V176h4.46Z"/><path class="cls-12" d="M239.73,117s0,0,0,0,0-.06,0-.09c-.2-6.35-7.72-12.61-7.72-12.61s-7.51,6.26-7.72,12.61c0,0,0,.06,0,.09v0s0,.09,0,.13,0,.1,0,.14h0a7.72,7.72,0,0,0,15.44,0h0s0-.1,0-.14Zm-2.57.23h0a5.15,5.15,0,0,1-5.15,5,5.22,5.22,0,0,1-.74-.05,9.54,9.54,0,0,0,4.67-8.21,9.71,9.71,0,0,0-.07-1.16,9.43,9.43,0,0,1,1.29,4.09h0v.27Z"/><rect class="cls-13" x="115" y="81.15" width="60.05" height="171.57" rx="8.58" ry="8.58"/><rect class="cls-3" x="115" y="74.28" width="60.05" height="171.57" rx="8.58" ry="8.58"/><rect class="cls-4" x="115" y="92.3" width="60.05" height="153.55"/><rect class="cls-14" x="115" y="136.05" width="60.05" height="109.8"/><rect class="cls-6" x="115" y="86.96" width="60.05" height="5.92"/><rect class="cls-7" x="115" y="85.2" width="60.05" height="2.57"/><circle class="cls-4" cx="145.02" cy="186.66" r="20.59"/><path class="cls-14" d="M149.72,188.84v2.71c0,3.27-1.63,5.13-4.78,5.13s-4.78-1.87-4.78-5.13V180.93c0-3.27,1.63-5.13,4.78-5.13s4.78,1.87,4.78,5.13v2h-3v-2.19c0-1.46-.64-2-1.66-2s-1.66.55-1.66,2v11c0,1.46.64,2,1.66,2s1.66-.52,1.66-2v-2.92Z"/><path class="cls-14" d="M152.75,117a.32.32,0,0,1,0,0s0-.06,0-.09c-.2-6.35-7.72-12.61-7.72-12.61s-7.51,6.26-7.72,12.61c0,0,0,.06,0,.09v0s0,.09,0,.13,0,.1,0,.14h0a7.72,7.72,0,0,0,15.44,0h0s0-.1,0-.14Zm-2.57.23h0a5.15,5.15,0,0,1-5.15,5,5.21,5.21,0,0,1-.74-.05,9.54,9.54,0,0,0,4.67-8.21,9.82,9.82,0,0,0-.07-1.16,9.43,9.43,0,0,1,1.29,4.09h0v.27Z"/></g></g><g id="text"><path class="cls-5" d="M176.6,301.29V285h2.74v16.28Z"/><path class="cls-5" d="M195,301.29l-8.67-11.67v11.67h-2.74V285h2.7l8.72,11.7V285h2.7v16.28Z"/><path class="cls-5" d="M207.55,294.1l-2.77,3v4.14H202V285h2.74v8.42l7.77-8.42h3.23l-6.3,7,6.72,9.33h-3.3Z"/><path class="cls-8" d="M238.13,287.45l-1.6,2a6.36,6.36,0,0,0-4.53-2.07,5.73,5.73,0,1,0,0,11.46,6.73,6.73,0,0,0,4.53-1.93l1.63,1.81a9.24,9.24,0,0,1-6.3,2.67,8.24,8.24,0,1,1,.09-16.46A9,9,0,0,1,238.13,287.45Z"/><path class="cls-8" d="M243.13,297.62l-1.56,3.67h-2.86L245.9,285h2.81l7.12,16.28H252.9l-1.56-3.67Zm4.09-9.67-3.07,7.23h6.14Z"/><path class="cls-8" d="M265.34,296.36c-.23,0-.49,0-.74,0h-3.86v4.91H258V285h6.6c4.16,0,6.56,2,6.56,5.56a5.23,5.23,0,0,1-3.37,5.28l3.65,5.44h-3.12Zm-.74-2.44c2.51,0,4-1.07,4-3.28s-1.44-3.16-4-3.16h-3.86v6.44Z"/><path class="cls-8" d="M280.76,287.48v13.81H278V287.48h-5.14V285h13v2.46Z"/><path class="cls-8" d="M295.61,296.36c-.23,0-.49,0-.74,0H291v4.91h-2.74V285h6.6c4.16,0,6.56,2,6.56,5.56a5.23,5.23,0,0,1-3.37,5.28l3.65,5.44h-3.11Zm-.74-2.44c2.51,0,4-1.07,4-3.28s-1.44-3.16-4-3.16H291v6.44Z"/><path class="cls-8" d="M305.08,301.29V285h2.74v16.28Z"/><path class="cls-8" d="M318.77,285c4.88,0,8.42,3.42,8.42,8.14s-3.56,8.14-8.49,8.14h-6.6V285Zm-3.93,13.81h4a5.46,5.46,0,0,0,5.58-5.65,5.55,5.55,0,0,0-5.7-5.7h-3.88Z"/><path class="cls-8" d="M343,293.29v6a11,11,0,0,1-6.33,2.12,8.3,8.3,0,0,1-8.56-8.25c0-4.65,3.79-8.21,8.72-8.21a9.78,9.78,0,0,1,6.26,2.28l-1.56,2a7.07,7.07,0,0,0-4.7-1.86,5.78,5.78,0,1,0,0,11.56,7.59,7.59,0,0,0,3.74-1.12v-4.54Z"/><path class="cls-8" d="M349.63,287.48v4.4h8v2.46h-8v4.49h9.16v2.46H346.89V285h11.63v2.46Z"/><path class="cls-8" d="M373.19,286.57,372,289a9.74,9.74,0,0,0-4.77-1.51c-1.6,0-2.65.6-2.65,1.7,0,3.56,8.79,1.65,8.77,7.51,0,2.91-2.56,4.7-6.14,4.7a10,10,0,0,1-6.65-2.58l1.19-2.37a8.58,8.58,0,0,0,5.51,2.37c1.91,0,3-.72,3-2,0-3.63-8.79-1.6-8.79-7.39,0-2.79,2.4-4.54,5.93-4.54A10.6,10.6,0,0,1,373.19,286.57Z"/><path class="cls-14" d="M201.39,319.86v1.82h-7.16v-11.9h2v10.08Z"/><path class="cls-14" d="M211.77,317.16a4.72,4.72,0,1,1-4.71-4.59A4.43,4.43,0,0,1,211.77,317.16Zm-7.48,0a2.77,2.77,0,1,0,2.77-2.92A2.73,2.73,0,0,0,204.29,317.18Z"/><path class="cls-14" d="M215.77,314.44a3.29,3.29,0,0,1,3.13-1.87v1.87a2.74,2.74,0,0,0-3.13,2.52v4.73h-2v-9h2Z"/><path class="cls-14" d="M228.72,321.68h-2v-1.77a3.33,3.33,0,0,1-3.23,1.84,3.14,3.14,0,0,1-3.31-3.49v-5.63h2v5.08a2,2,0,0,0,2.11,2.19,2.55,2.55,0,0,0,2.48-2.82v-4.45h2Z"/><path class="cls-14" d="M246.71,316.05v5.63h-2V316.6a2,2,0,0,0-2.14-2.21,2.57,2.57,0,0,0-2.48,2.82v4.47h-2V316.6a2,2,0,0,0-2.12-2.21,2.59,2.59,0,0,0-2.52,2.82v4.47H231.6v-9h1.94v1.75a3.34,3.34,0,0,1,3.28-1.82,3,3,0,0,1,3.15,2.18,3.32,3.32,0,0,1,3.43-2.18A3.14,3.14,0,0,1,246.71,316.05Z"/><path class="cls-12" d="M253.83,321.68v-11.9h2v11.9Z"/><path class="cls-12" d="M268.36,317.19c0,2.7-1.7,4.56-4.28,4.56a3.55,3.55,0,0,1-3.2-1.63V325h-2V312.64h2v1.56a3.53,3.53,0,0,1,3.16-1.63C266.61,312.57,268.36,314.44,268.36,317.19Zm-2-.07a2.76,2.76,0,1,0-2.75,3A2.74,2.74,0,0,0,266.39,317.13Z"/><path class="cls-12" d="M276.26,313.47l-.71,1.44a5.33,5.33,0,0,0-2.6-.8c-.77,0-1.33.25-1.33.9,0,1.67,4.81.76,4.79,4,0,1.85-1.65,2.69-3.47,2.69a5.6,5.6,0,0,1-3.64-1.26l.7-1.39a4.93,4.93,0,0,0,3,1.12c.83,0,1.48-.29,1.48-1,0-1.85-4.76-.82-4.74-4.08,0-1.83,1.6-2.62,3.33-2.62A5.72,5.72,0,0,1,276.26,313.47Z"/><path class="cls-12" d="M286.59,321.68h-2v-1.77a3.33,3.33,0,0,1-3.23,1.84,3.14,3.14,0,0,1-3.31-3.49v-5.63h2v5.08a2,2,0,0,0,2.11,2.19,2.55,2.55,0,0,0,2.48-2.82v-4.45h2Z"/><path class="cls-12" d="M304.59,316.05v5.63h-2V316.6a2,2,0,0,0-2.14-2.21,2.57,2.57,0,0,0-2.48,2.82v4.47h-2V316.6a2,2,0,0,0-2.12-2.21,2.59,2.59,0,0,0-2.52,2.82v4.47h-1.94v-9h1.94v1.75a3.34,3.34,0,0,1,3.28-1.82,3,3,0,0,1,3.14,2.18,3.32,3.32,0,0,1,3.43-2.18A3.14,3.14,0,0,1,304.59,316.05Z"/><path class="cls-10" d="M316.58,309.78a6,6,0,1,1-.05,11.9H311.7v-11.9Zm-2.87,10.1h2.92a4,4,0,0,0,4.08-4.13,4.06,4.06,0,0,0-4.17-4.16h-2.84Z"/><path class="cls-10" d="M333.34,317.16a4.72,4.72,0,1,1-4.71-4.59A4.43,4.43,0,0,1,333.34,317.16Zm-7.48,0a2.77,2.77,0,1,0,2.77-2.92A2.73,2.73,0,0,0,325.86,317.18Z"/><path class="cls-10" d="M335.46,321.68V309.07h2v12.61Z"/><path class="cls-10" d="M349,317.16a4.72,4.72,0,1,1-4.71-4.59A4.43,4.43,0,0,1,349,317.16Zm-7.48,0a2.77,2.77,0,1,0,2.77-2.92A2.73,2.73,0,0,0,341.49,317.18Z"/><path class="cls-10" d="M353,314.44a3.29,3.29,0,0,1,3.13-1.87v1.87A2.74,2.74,0,0,0,353,317v4.73h-2v-9h2Z"/></g></svg>