<svg width="124" height="87" viewBox="0 0 124 87" fill="none" xmlns="http://www.w3.org/2000/svg">
<g clip-path="url(#clip0)">
<path opacity="0.05" d="M123.711 43.4186C123.486 43.1926 123.261 42.9666 123.035 42.7407C122.81 42.5148 122.584 42.2888 122.359 42.0628C122.133 41.8369 121.908 41.6109 121.682 41.3849C121.457 41.159 121.231 40.933 121.006 40.707C120.777 40.4771 120.559 40.2589 120.33 40.029C120.104 39.8031 119.879 39.5771 119.653 39.3511C119.428 39.1253 119.202 38.8993 118.977 38.6732C118.751 38.4472 118.526 38.2212 118.3 37.9953C118.075 37.7694 117.849 37.5434 117.624 37.3173C117.399 37.0913 117.173 36.8653 116.948 36.6394C116.722 36.4135 116.497 36.1875 116.271 35.9615C116.046 35.7356 115.82 35.5096 115.595 35.2836C115.37 35.0576 115.144 34.8316 114.919 34.6057C114.693 34.3798 114.468 34.1538 114.242 33.9277C114.017 33.7018 113.791 33.4758 113.566 33.2498C113.49 33.1564 113.405 33.0701 113.313 32.9922C113.088 32.7662 112.863 32.5403 112.637 32.3143C112.408 32.0843 112.19 31.8663 111.961 31.6364C111.863 31.5109 111.75 31.3978 111.625 31.2997C111.527 31.1742 111.414 31.0611 111.289 30.963C111.191 30.8375 111.078 30.7244 110.953 30.6263C110.855 30.5008 110.742 30.3877 110.617 30.2896C110.519 30.164 110.406 30.051 110.281 29.9529C110.183 29.8274 110.07 29.7143 109.945 29.6162C109.847 29.4906 109.734 29.3775 109.609 29.2795C109.511 29.1539 109.399 29.0409 109.273 28.9427C109.175 28.8173 109.063 28.7042 108.937 28.606C108.839 28.4805 108.727 28.3675 108.601 28.2693C108.504 28.1438 108.391 28.0308 108.266 27.9326C108.168 27.8071 108.055 27.6941 107.93 27.5959C107.832 27.4704 107.719 27.3574 107.594 27.2592C107.496 27.1337 107.383 27.0206 107.258 26.9225C107.16 26.797 107.047 26.6839 106.922 26.5858C106.824 26.4603 106.711 26.3472 106.586 26.2491C106.488 26.1236 106.375 26.0106 106.25 25.9124C106.152 25.787 106.039 25.6739 105.914 25.5757C105.816 25.4503 105.703 25.3372 105.578 25.239C105.48 25.1135 105.367 25.0004 105.242 24.9023C105.144 24.7768 105.031 24.6637 104.906 24.5656C104.808 24.4401 104.696 24.3271 104.57 24.2289C104.472 24.1034 104.36 23.9903 104.234 23.8922C104.137 23.7667 104.024 23.6536 103.898 23.5555C103.801 23.43 103.688 23.3169 103.563 23.2188C103.473 23.1062 103.37 23.0039 103.258 22.9138C103.16 22.7882 103.047 22.6752 102.922 22.5771C102.823 22.4521 102.708 22.3398 102.582 22.2426C102.484 22.1171 102.371 22.004 102.246 21.9059C102.147 21.7802 102.032 21.6671 101.905 21.5692C101.809 21.4473 101.699 21.3373 101.576 21.2416C101.475 21.1122 101.359 20.996 101.229 20.8958C101.134 20.7726 101.025 20.6611 100.904 20.5636C100.807 20.4381 100.694 20.325 100.568 20.2269C100.472 20.1 100.36 19.9854 100.235 19.8857C100.137 19.7602 100.024 19.6471 99.8989 19.549C99.8012 19.4219 99.6884 19.3074 99.563 19.2078C99.465 19.0823 99.3522 18.9692 99.227 18.8711C99.1291 18.7456 99.0163 18.6326 98.8911 18.5344C98.7932 18.4089 98.6804 18.2958 98.5552 18.1977C98.4572 18.0723 98.3444 17.9592 98.2192 17.861C98.1213 17.7355 98.0085 17.6224 97.8833 17.5243C97.7031 17.2919 97.4723 17.1037 97.2086 16.9741C96.9449 16.8445 96.6552 16.7769 96.3615 16.7763H86.694C86.1817 16.7805 85.6919 16.9877 85.3316 17.3527C84.9713 17.7177 84.7697 18.2107 84.7709 18.7242V24.0165C84.7348 23.9826 84.6965 23.951 84.6582 23.9216C84.5602 23.7961 84.4474 23.6831 84.3222 23.5849C84.2243 23.4594 84.1115 23.3464 83.9863 23.2482C83.8861 23.1231 83.771 23.0108 83.6436 22.9138C83.5457 22.7883 83.4329 22.6752 83.3077 22.5771C83.2083 22.4513 83.094 22.3383 82.9673 22.2404C82.8693 22.1149 82.7565 22.0018 82.6313 21.9037C82.5319 21.7787 82.4176 21.6663 82.2909 21.5692C82.1952 21.4474 82.0855 21.3374 81.964 21.2416C81.8661 21.116 81.7533 21.003 81.6281 20.9049C81.5311 20.7779 81.4191 20.6633 81.2944 20.5636C81.1965 20.4381 81.0837 20.325 80.9585 20.2269C80.8608 20.0998 80.748 19.9852 80.6225 19.8857C80.5246 19.7602 80.4118 19.6471 80.2866 19.549C80.1897 19.4221 80.0776 19.3075 79.9529 19.2078C79.855 19.0823 79.7422 18.9692 79.617 18.8711C79.5191 18.7456 79.4063 18.6325 79.2811 18.5344C79.1831 18.4089 79.0703 18.2958 78.9451 18.1977C78.8472 18.0722 78.7344 17.9591 78.6092 17.861C78.5113 17.7355 78.3985 17.6225 78.2733 17.5243C78.093 17.2919 77.8623 17.1037 77.5986 16.9741C77.3349 16.8445 77.0452 16.7769 76.7515 16.7763H67.084C66.5709 16.7793 66.08 16.986 65.7187 17.3511C65.3573 17.7162 65.1551 18.21 65.1563 18.7242V24.0165C65.1203 23.9826 65.0819 23.951 65.0436 23.9216C64.9457 23.7961 64.8329 23.683 64.7077 23.5849C64.6098 23.4594 64.497 23.3463 64.3718 23.2482C64.2717 23.1231 64.1566 23.0107 64.0291 22.9138C63.9312 22.7883 63.8183 22.6752 63.6931 22.5771C63.5936 22.4521 63.4793 22.3398 63.3527 22.2426C63.2548 22.1171 63.142 22.004 63.0168 21.9059C62.9188 21.7805 62.806 21.6674 62.6808 21.5692C62.5852 21.4474 62.4754 21.3374 62.3539 21.2416C62.256 21.1161 62.1432 21.003 62.018 20.9049C61.9204 20.7778 61.8076 20.6632 61.6821 20.5636C61.5842 20.4381 61.4714 20.3251 61.3462 20.2269C61.2492 20.1 61.1372 19.9854 61.0125 19.8857C60.9146 19.7602 60.8018 19.6471 60.6766 19.549C60.5789 19.4219 60.4661 19.3073 60.3406 19.2078C60.2427 19.0823 60.1299 18.9692 60.0047 18.8711C59.9068 18.7456 59.794 18.6325 59.6688 18.5344C59.5709 18.4089 59.4581 18.2958 59.3329 18.1977C59.235 18.0722 59.1221 17.9591 58.9969 17.861C58.899 17.7355 58.7862 17.6224 58.661 17.5243C58.4807 17.2919 58.25 17.1037 57.9863 16.9741C57.7226 16.8445 57.4329 16.7769 57.1392 16.7763H47.4717C46.9582 16.7787 46.4667 16.9851 46.1049 17.3503C45.7431 17.7155 45.5406 18.2096 45.5418 18.7242V24.0165C45.5057 23.9826 45.4674 23.951 45.4291 23.9216C45.3312 23.7961 45.2184 23.683 45.0931 23.5849C44.9952 23.4594 44.8824 23.3463 44.7572 23.2482C44.6571 23.1231 44.542 23.0108 44.4145 22.9138C44.3166 22.7883 44.2038 22.6752 44.0786 22.5771C43.9793 22.4513 43.865 22.3382 43.7382 22.2404C43.6403 22.1148 43.5275 22.0018 43.4022 21.9037C43.3043 21.7782 43.1915 21.6651 43.0663 21.567C42.9712 21.4461 42.8622 21.3369 42.7417 21.2416C42.6437 21.116 42.5309 21.003 42.4057 20.9049C42.3088 20.7779 42.1967 20.6633 42.0721 20.5636C41.9741 20.4381 41.8613 20.3251 41.7361 20.2269C41.6391 20.1 41.5271 19.9854 41.4025 19.8857C41.3045 19.7602 41.1917 19.6472 41.0665 19.549C40.9688 19.422 40.856 19.3074 40.7306 19.2078C40.6326 19.0823 40.5198 18.9693 40.3947 18.8711C40.2968 18.7456 40.184 18.6325 40.0587 18.5344C39.9608 18.4089 39.848 18.2958 39.7228 18.1977C39.6249 18.0722 39.5121 17.9591 39.3869 17.861C39.289 17.7355 39.1762 17.6224 39.051 17.5243C38.8707 17.2919 38.6399 17.1037 38.3762 16.9741C38.1125 16.8445 37.8228 16.7769 37.5291 16.7763H27.8617C27.607 16.7769 27.355 16.8278 27.12 16.926C26.885 17.0242 26.6716 17.1678 26.492 17.3487C26.3123 17.5296 26.17 17.7442 26.0731 17.9802C25.9762 18.2162 25.9267 18.469 25.9273 18.7242V55.558H25.9656C26.0613 56.0064 26.312 56.4066 26.6735 56.6878C26.7708 56.8124 26.8829 56.9247 27.0072 57.0223C27.1051 57.1478 27.2179 57.2608 27.3431 57.359C27.441 57.4845 27.5538 57.5976 27.679 57.6957C27.777 57.8211 27.8898 57.9342 28.015 58.0324C28.1129 58.1579 28.2257 58.2709 28.3509 58.3691C28.4488 58.4945 28.5616 58.6076 28.6868 58.7058C28.7847 58.8313 28.8976 58.9443 29.0227 59.0425C29.1207 59.168 29.2335 59.281 29.3587 59.3792C29.4566 59.5046 29.5694 59.6177 29.6946 59.7159C29.7925 59.8414 29.9053 59.9544 30.0305 60.0526C30.1285 60.178 30.2413 60.2911 30.3665 60.3893C30.4643 60.5148 30.5771 60.6279 30.7024 60.726C30.8003 60.8515 30.9131 60.9646 31.0383 61.0627C31.1354 61.1881 31.2475 61.3012 31.372 61.3994C31.4699 61.5249 31.5827 61.638 31.7079 61.7361C31.9335 61.962 32.1589 62.1879 32.3843 62.414C32.6097 62.64 32.8352 62.866 33.0606 63.0919C33.2862 63.3178 33.5116 63.5438 33.737 63.7699C33.9626 63.9957 34.188 64.2217 34.4134 64.4478C34.6388 64.6738 34.8642 64.8998 35.0897 65.1257C35.3152 65.3517 35.5407 65.5776 35.7661 65.8036C35.9915 66.0296 36.217 66.2556 36.4425 66.4816C36.6678 66.7076 36.8933 66.9336 37.1188 67.1595C37.3444 67.3854 37.5698 67.6113 37.7952 67.8374C38.0205 68.0635 38.246 68.2894 38.4715 68.5153C38.697 68.7413 38.9225 68.9673 39.1479 69.1932C39.3734 69.4192 39.5988 69.6452 39.8243 69.8712C40.0496 70.0973 40.2751 70.3232 40.5006 70.5491C40.5986 70.6746 40.7114 70.7876 40.8366 70.8858C41.062 71.1118 41.2874 71.3378 41.5129 71.5637C41.7384 71.7897 41.9638 72.0157 42.1893 72.2416C42.2872 72.3671 42.4 72.4802 42.5252 72.5783C42.7507 72.8043 42.9762 73.0302 43.2016 73.2563C43.4271 73.4822 43.6525 73.7082 43.8779 73.9342C44.1033 74.1602 44.3288 74.3862 44.5543 74.6121C44.7797 74.8381 45.0051 75.0641 45.2307 75.29C45.4561 75.5161 45.6815 75.742 45.907 75.9679C46.1326 76.1938 46.358 76.4198 46.5834 76.6459C46.8089 76.8718 47.0343 77.0978 47.2598 77.3238C47.4852 77.5498 47.7106 77.7758 47.9361 78.0017C48.1615 78.2277 48.387 78.4537 48.6125 78.6796C48.8379 78.9056 49.0634 79.1316 49.2888 79.3576C49.5143 79.5835 49.7398 79.8095 49.9652 80.0355C50.1907 80.2614 50.4161 80.4874 50.6416 80.7134C50.8671 80.9393 51.0926 81.1653 51.3179 81.3913C51.5434 81.6173 51.7689 81.8432 51.9943 82.0692C52.2198 82.2952 52.4452 82.5212 52.6707 82.7472C52.7685 82.8727 52.8813 82.9858 53.0066 83.0839C53.232 83.3099 53.4575 83.5359 53.683 83.7618C53.9084 83.9878 54.1338 84.2138 54.3593 84.4397C54.5884 84.6693 54.8066 84.888 55.0357 85.1176C55.2612 85.3435 55.4867 85.5695 55.7121 85.7956C55.9375 86.0215 56.163 86.2475 56.3884 86.4735C56.4863 86.599 56.5991 86.712 56.7243 86.8102C56.8223 86.9357 56.9351 87.0487 57.0603 87.1469L57.1054 87.1966H124V43.7034C123.914 43.5987 123.817 43.5033 123.711 43.4186V43.4186Z" fill="black"/>
<path d="M96.3637 18.3378H86.694C85.6256 18.3378 84.7596 19.2059 84.7596 20.2767V55.1693C84.7596 56.2401 85.6256 57.1082 86.694 57.1082H96.3637C97.4321 57.1082 98.2981 56.2401 98.2981 55.1693V20.2767C98.2981 19.2059 97.4321 18.3378 96.3637 18.3378Z" fill="black"/>
<path d="M96.3637 16.7853H86.694C85.6256 16.7853 84.7596 17.6534 84.7596 18.7242V53.6168C84.7596 54.6876 85.6256 55.5557 86.694 55.5557H96.3637C97.4321 55.5557 98.2981 54.6876 98.2981 53.6168V18.7242C98.2981 17.6534 97.4321 16.7853 96.3637 16.7853Z" fill="#BDC3C7"/>
<path d="M98.2981 20.8574H84.7596V55.5557H98.2981V20.8574Z" fill="#4D4D4D"/>
<path d="M98.2981 30.7438H84.7596V55.5557H98.2981V30.7438Z" fill="#231F20"/>
<path d="M98.2981 19.6507H84.7596V20.9885H98.2981V19.6507Z" fill="#8E9295"/>
<path opacity="0.4" d="M98.2981 19.253H84.7596V19.8337H98.2981V19.253Z" fill="white"/>
<path d="M91.53 46.8331C94.0938 46.8331 96.1721 44.75 96.1721 42.1803C96.1721 39.6106 94.0938 37.5275 91.53 37.5275C88.9662 37.5275 86.8879 39.6106 86.8879 42.1803C86.8879 44.75 88.9662 46.8331 91.53 46.8331Z" fill="white"/>
<path d="M91.4376 42.5532L91.2121 42.9757V44.3926H90.4884V39.7714H91.2121V41.7803L92.159 39.7714H92.8872L91.8817 41.8278L92.8872 44.3926H92.1455L91.4376 42.5532Z" fill="#231F20"/>
<path d="M93.2705 26.439C93.2705 26.439 93.2705 26.4254 93.2705 26.4186C93.2254 24.9837 91.53 23.5691 91.53 23.5691C91.53 23.5691 89.8368 24.9837 89.7895 26.4186C89.7895 26.4186 89.7895 26.4322 89.7895 26.439C89.7895 26.439 89.7895 26.4593 89.7895 26.4683C89.7895 26.4774 89.7895 26.4909 89.7895 26.5C89.7895 26.9627 89.9729 27.4064 90.2993 27.7335C90.6257 28.0607 91.0684 28.2445 91.53 28.2445C91.9916 28.2445 92.4343 28.0607 92.7607 27.7335C93.0871 27.4064 93.2705 26.9627 93.2705 26.5V26.5C93.2705 26.5 93.2705 26.4774 93.2705 26.4683V26.439ZM92.6911 26.4909C92.6823 26.7937 92.5561 27.0811 92.3393 27.292C92.1225 27.503 91.8322 27.6209 91.53 27.6208C91.4742 27.621 91.4184 27.6173 91.3632 27.6095C91.6842 27.4185 91.9501 27.1469 92.1347 26.8217C92.3194 26.4964 92.4163 26.1285 92.416 25.7543C92.4159 25.6667 92.4107 25.5791 92.4002 25.4921C92.5667 25.7737 92.6663 26.09 92.6911 26.4164V26.4164V26.4774V26.4909Z" fill="#231F20"/>
<path d="M76.7537 18.3378H67.084C66.0157 18.3378 65.1496 19.2059 65.1496 20.2767V55.1693C65.1496 56.2401 66.0157 57.1082 67.084 57.1082H76.7537C77.8221 57.1082 78.6881 56.2401 78.6881 55.1693V20.2767C78.6881 19.2059 77.8221 18.3378 76.7537 18.3378Z" fill="#D6C700"/>
<path d="M76.7537 16.7853H67.084C66.0157 16.7853 65.1496 17.6534 65.1496 18.7242V53.6168C65.1496 54.6876 66.0157 55.5557 67.084 55.5557H76.7537C77.8221 55.5557 78.6881 54.6876 78.6881 53.6168V18.7242C78.6881 17.6534 77.8221 16.7853 76.7537 16.7853Z" fill="#BDC3C7"/>
<path d="M78.6881 20.8574H65.1496V55.5557H78.6881V20.8574Z" fill="#4D4D4D"/>
<path d="M78.6881 30.7438H65.1496V55.5557H78.6881V30.7438Z" fill="#FFF100"/>
<path d="M78.6881 19.6507H65.1496V20.9885H78.6881V19.6507Z" fill="#8E9295"/>
<path opacity="0.4" d="M78.6881 19.253H65.1496V19.8337H78.6881V19.253Z" fill="white"/>
<path d="M71.9177 46.8331C74.4815 46.8331 76.5599 44.75 76.5599 42.1803C76.5599 39.6106 74.4815 37.5275 71.9177 37.5275C69.354 37.5275 67.2756 39.6106 67.2756 42.1803C67.2756 44.75 69.354 46.8331 71.9177 46.8331Z" fill="#4D4D4D"/>
<path d="M71.5548 42.8627L70.6417 39.7714H71.3969L71.9493 41.873L72.5017 39.7714H73.1916L72.2785 42.856V44.3836H71.5548V42.8627Z" fill="#FFF100"/>
<path d="M73.6582 26.439C73.6582 26.439 73.6582 26.4254 73.6582 26.4186C73.6131 24.9837 71.9177 23.5691 71.9177 23.5691C71.9177 23.5691 70.2245 24.9837 70.1772 26.4186C70.1772 26.4186 70.1772 26.4322 70.1772 26.439C70.1772 26.439 70.1772 26.4593 70.1772 26.4683C70.1772 26.4774 70.1772 26.4909 70.1772 26.5C70.1772 26.9627 70.3606 27.4064 70.687 27.7335C71.0134 28.0607 71.4561 28.2445 71.9177 28.2445C72.3793 28.2445 72.822 28.0607 73.1484 27.7335C73.4748 27.4064 73.6582 26.9627 73.6582 26.5V26.5C73.6582 26.5 73.6582 26.4774 73.6582 26.4683V26.439ZM73.0788 26.4909C73.07 26.7937 72.9438 27.0811 72.727 27.292C72.5102 27.503 72.2199 27.6209 71.9177 27.6208C71.8619 27.621 71.8061 27.6172 71.7509 27.6095C72.0719 27.4185 72.3378 27.1469 72.5224 26.8217C72.707 26.4964 72.804 26.1285 72.8037 25.7543C72.8036 25.6667 72.7984 25.5791 72.7879 25.4921C72.9544 25.7738 73.0539 26.09 73.0788 26.4164V26.4164V26.4774V26.4909Z" fill="#FFF100"/>
<path d="M57.1414 18.3378H47.4717C46.4034 18.3378 45.5373 19.2059 45.5373 20.2767V55.1693C45.5373 56.2401 46.4034 57.1082 47.4717 57.1082H57.1414C58.2098 57.1082 59.0758 56.2401 59.0758 55.1693V20.2767C59.0758 19.2059 58.2098 18.3378 57.1414 18.3378Z" fill="#C40075"/>
<path d="M57.1414 16.7853H47.4717C46.4034 16.7853 45.5373 17.6534 45.5373 18.7242V53.6168C45.5373 54.6876 46.4034 55.5557 47.4717 55.5557H57.1414C58.2098 55.5557 59.0758 54.6876 59.0758 53.6168V18.7242C59.0758 17.6534 58.2098 16.7853 57.1414 16.7853Z" fill="#BDC3C7"/>
<path d="M59.0758 20.8574H45.5373V55.5557H59.0758V20.8574Z" fill="#4D4D4D"/>
<path d="M59.0758 30.7438H45.5373V55.5557H59.0758V30.7438Z" fill="#EC008C"/>
<path d="M59.0758 19.6507H45.5373V20.9885H59.0758V19.6507Z" fill="#8E9295"/>
<path opacity="0.4" d="M59.0758 19.253H45.5373V19.8337H59.0758V19.253Z" fill="white"/>
<path d="M52.3077 46.8331C54.8715 46.8331 56.9498 44.75 56.9498 42.1803C56.9498 39.6106 54.8715 37.5275 52.3077 37.5275C49.7439 37.5275 47.6656 39.6106 47.6656 42.1803C47.6656 44.75 49.7439 46.8331 52.3077 46.8331Z" fill="#4D4D4D"/>
<path d="M52.3235 43.0548L52.8172 39.7714H53.8228V44.3836H53.1464V41.0843L52.6459 44.3926H51.9695L51.4172 41.1273V44.3881H50.7859V39.7714H51.7914L52.3235 43.0548Z" fill="#EC008C"/>
<path d="M54.0482 26.439C54.0482 26.439 54.0482 26.4254 54.0482 26.4186C54.0031 24.9837 52.3077 23.5691 52.3077 23.5691C52.3077 23.5691 50.6145 24.9837 50.5672 26.4186C50.5672 26.4186 50.5672 26.4322 50.5672 26.439C50.5672 26.439 50.5672 26.4593 50.5672 26.4683C50.5672 26.4774 50.5672 26.4909 50.5672 26.5C50.5672 26.9627 50.7506 27.4064 51.077 27.7335C51.4034 28.0607 51.8461 28.2445 52.3077 28.2445C52.7693 28.2445 53.212 28.0607 53.5384 27.7335C53.8648 27.4064 54.0482 26.9627 54.0482 26.5V26.5C54.0482 26.5 54.0482 26.4774 54.0482 26.4683V26.439ZM53.4688 26.4909C53.46 26.7937 53.3338 27.0811 53.117 27.292C52.9002 27.503 52.6099 27.6209 52.3077 27.6208C52.2519 27.621 52.1961 27.6172 52.1409 27.6095C52.4619 27.4185 52.7278 27.1469 52.9124 26.8217C53.0971 26.4964 53.194 26.1285 53.1937 25.7543C53.1937 25.6666 53.1884 25.5791 53.178 25.4921C53.3444 25.7737 53.444 26.09 53.4688 26.4164V26.4774V26.4909Z" fill="#EC008C"/>
<path d="M37.5314 18.3378H27.8616C26.7933 18.3378 25.9272 19.2059 25.9272 20.2767V55.1693C25.9272 56.2401 26.7933 57.1082 27.8616 57.1082H37.5314C38.5997 57.1082 39.4658 56.2401 39.4658 55.1693V20.2767C39.4658 19.2059 38.5997 18.3378 37.5314 18.3378Z" fill="#0092C8"/>
<path d="M37.5314 16.7853H27.8616C26.7933 16.7853 25.9272 17.6534 25.9272 18.7242V53.6168C25.9272 54.6876 26.7933 55.5557 27.8616 55.5557H37.5314C38.5997 55.5557 39.4658 54.6876 39.4658 53.6168V18.7242C39.4658 17.6534 38.5997 16.7853 37.5314 16.7853Z" fill="#BDC3C7"/>
<path d="M39.4658 20.8574H25.9272V55.5557H39.4658V20.8574Z" fill="#4D4D4D"/>
<path d="M39.4658 30.7438H25.9272V55.5557H39.4658V30.7438Z" fill="#00AEEF"/>
<path d="M39.4658 19.6507H25.9272V20.9885H39.4658V19.6507Z" fill="#8E9295"/>
<path opacity="0.4" d="M39.4658 19.253H25.9272V19.8337H39.4658V19.253Z" fill="white"/>
<path d="M32.6954 46.8331C35.2592 46.8331 37.3375 44.75 37.3375 42.1803C37.3375 39.6106 35.2592 37.5275 32.6954 37.5275C30.1316 37.5275 28.0533 39.6106 28.0533 42.1803C28.0533 44.75 30.1316 46.8331 32.6954 46.8331Z" fill="#4D4D4D"/>
<path d="M33.755 42.6729V43.2853C33.755 44.0243 33.3875 44.4446 32.6773 44.4446C31.9672 44.4446 31.5997 44.022 31.5997 43.2853V40.8855C31.5997 40.1466 31.9672 39.7263 32.6773 39.7263C33.3875 39.7263 33.755 40.1488 33.755 40.8855V41.3374H33.0787V40.8426C33.0787 40.5126 32.9344 40.3906 32.7044 40.3906C32.4744 40.3906 32.3301 40.5149 32.3301 40.8426V43.3283C32.3301 43.6582 32.4744 43.7802 32.7044 43.7802C32.9344 43.7802 33.0787 43.6627 33.0787 43.3283V42.6684L33.755 42.6729Z" fill="#00AEEF"/>
<path d="M34.4382 26.439C34.4382 26.439 34.4382 26.4254 34.4382 26.4186C34.3931 24.9837 32.6977 23.5691 32.6977 23.5691C32.6977 23.5691 31.0045 24.9837 30.9572 26.4186C30.9572 26.4186 30.9572 26.4322 30.9572 26.439C30.9572 26.439 30.9572 26.4593 30.9572 26.4683C30.9572 26.4774 30.9572 26.4909 30.9572 26.5C30.9572 26.9627 31.1405 27.4064 31.4669 27.7335C31.7933 28.0607 32.2361 28.2445 32.6977 28.2445C33.1593 28.2445 33.602 28.0607 33.9284 27.7335C34.2548 27.4064 34.4382 26.9627 34.4382 26.5V26.5C34.4382 26.5 34.4382 26.4774 34.4382 26.4683V26.439ZM33.8588 26.4909C33.85 26.7937 33.7238 27.0811 33.507 27.292C33.2902 27.503 32.9998 27.6209 32.6977 27.6208C32.6419 27.621 32.5861 27.6172 32.5308 27.6095C32.8519 27.4185 33.1178 27.1469 33.3024 26.8217C33.487 26.4964 33.584 26.1285 33.5837 25.7543C33.5836 25.6667 33.5783 25.5791 33.5679 25.4921C33.7344 25.7737 33.8339 26.09 33.8588 26.4164V26.4774V26.4909Z" fill="#00AEEF"/>
<path d="M39.8152 68.0837V64.4026H40.433V68.0814L39.8152 68.0837Z" fill="#231F20"/>
<path d="M43.9636 68.0837L42.0089 65.4466V68.0837H41.3912V64.4026H41.9999L43.9659 67.0465V64.4026H44.5746V68.0814L43.9636 68.0837Z" fill="#231F20"/>
<path d="M46.7931 66.4589L46.1686 67.1369V68.0724H45.5418V64.4026H46.1596V66.3053L47.9113 64.4026H48.6396L47.2192 65.9844L48.7342 68.0927H47.9902L46.7931 66.4589Z" fill="#231F20"/>
<path d="M53.6875 64.9563L53.3267 65.4082C53.1967 65.2654 53.0392 65.1503 52.8637 65.0699C52.6882 64.9896 52.4983 64.9455 52.3054 64.9404C52.1358 64.9404 51.9678 64.9739 51.8111 65.039C51.6543 65.1041 51.5119 65.1994 51.3919 65.3197C51.272 65.4399 51.1768 65.5827 51.1119 65.7398C51.047 65.8969 51.0136 66.0652 51.0136 66.2353C51.0136 66.4053 51.047 66.5737 51.1119 66.7308C51.1768 66.8879 51.272 67.0306 51.3919 67.1509C51.5119 67.2711 51.6543 67.3665 51.8111 67.4315C51.9678 67.4966 52.1358 67.5301 52.3054 67.5301C52.6886 67.5193 53.0535 67.3634 53.3267 67.094L53.6942 67.503C53.3152 67.8789 52.8069 68.0948 52.2739 68.1063C52.0225 68.1173 51.7715 68.077 51.5361 67.9878C51.3008 67.8986 51.0859 67.7624 50.9047 67.5875C50.7234 67.4126 50.5795 67.2026 50.4816 66.9703C50.3837 66.7379 50.334 66.4881 50.3354 66.2359C50.3367 65.9837 50.3892 65.7344 50.4896 65.5032C50.59 65.2719 50.7362 65.0635 50.9194 64.8906C51.1025 64.7177 51.3189 64.5838 51.5552 64.4972C51.7915 64.4106 52.0429 64.3731 52.2942 64.3868C52.8142 64.3906 53.313 64.5945 53.6875 64.9563V64.9563Z" fill="white"/>
<path d="M54.8147 67.2544L54.463 68.0837H53.8182L55.4393 64.4026H56.0728L57.678 68.0814H57.0174L56.6657 67.2521L54.8147 67.2544ZM55.7369 65.0692L55.0447 66.703H56.429L55.7369 65.0692Z" fill="white"/>
<path d="M59.8221 66.9696C59.7702 66.9696 59.7116 66.9696 59.6552 66.9696H58.785V68.0792H58.1672V64.4026H59.6552C60.5931 64.4026 61.1342 64.8545 61.1342 65.659C61.153 65.9134 61.0892 66.1671 60.9522 66.3822C60.8153 66.5972 60.6126 66.7621 60.3744 66.8521L61.1973 68.0814H60.4939L59.8221 66.9696ZM59.6552 66.4183C60.2211 66.4183 60.5571 66.1765 60.5571 65.6771C60.5571 65.1777 60.2324 64.963 59.6552 64.963H58.785V66.4183H59.6552Z" fill="white"/>
<path d="M63.2986 64.963V68.0837H62.6764V64.963H61.5175V64.4026H64.4484V64.9585L63.2986 64.963Z" fill="white"/>
<path d="M66.6466 66.9696C66.5947 66.9696 66.5361 66.9696 66.4798 66.9696H65.6072V68.0792H64.9895V64.4026H66.4775C67.4154 64.4026 67.9565 64.8545 67.9565 65.659C67.9753 65.9134 67.9114 66.1671 67.7745 66.3822C67.6376 66.5972 67.4349 66.7621 67.1967 66.8521L68.0196 68.0814H67.3184L66.6466 66.9696ZM66.4798 66.4183C67.0456 66.4183 67.3816 66.1765 67.3816 65.6771C67.3816 65.1777 67.0569 64.963 66.4798 64.963H65.6072V66.4183H66.4798Z" fill="white"/>
<path d="M68.7816 68.0837V64.4026H69.3994V68.0814L68.7816 68.0837Z" fill="white"/>
<path d="M71.8681 64.4026C72.9683 64.4026 73.7664 65.1754 73.7664 66.242C73.7664 67.3086 72.9638 68.0814 71.8523 68.0814H70.3643V64.4026H71.8681ZM70.9821 67.5233H71.8839C72.0515 67.5271 72.2181 67.4965 72.3734 67.4335C72.5288 67.3705 72.6697 67.2763 72.7875 67.1568C72.9053 67.0372 72.9975 66.8948 73.0585 66.7383C73.1194 66.5818 73.1478 66.4144 73.1419 66.2465C73.1466 66.0761 73.1165 65.9065 73.0536 65.7481C72.9907 65.5898 72.8962 65.4459 72.7759 65.3253C72.6556 65.2048 72.5121 65.1101 72.3541 65.047C72.196 64.9839 72.0269 64.9538 71.8568 64.9585H70.9821V67.5233Z" fill="white"/>
<path d="M77.3309 66.2759V67.6317C76.9162 67.9358 76.4175 68.1032 75.9038 68.1108C75.6541 68.1187 75.4054 68.0763 75.1723 67.9863C74.9392 67.8963 74.7264 67.7604 74.5466 67.5866C74.3667 67.4129 74.2234 67.2048 74.125 66.9746C74.0266 66.7445 73.9753 66.4969 73.9739 66.2465C73.9739 65.1958 74.8283 64.3913 75.9398 64.3913C76.4559 64.3922 76.9554 64.5745 77.3512 64.9065L76.9995 65.3585C76.71 65.0923 76.3327 64.9426 75.9398 64.9381C75.5942 64.9381 75.2628 65.0758 75.0184 65.3207C74.774 65.5657 74.6367 65.8979 74.6367 66.2443C74.6367 66.5907 74.774 66.9229 75.0184 67.1678C75.2628 67.4128 75.5942 67.5504 75.9398 67.5504C76.2381 67.5412 76.5288 67.4539 76.783 67.2973V66.2714L77.3309 66.2759Z" fill="white"/>
<path d="M78.8256 64.963V65.9573H80.6293V66.5132H78.8256V67.5278H80.8908V68.0837H78.2079V64.4026H80.8299V64.9585L78.8256 64.963Z" fill="white"/>
<path d="M84.1373 64.7574L83.8691 65.3065C83.5463 65.1008 83.1756 64.9832 82.7936 64.9653C82.4329 64.9653 82.1962 65.1008 82.1962 65.3494C82.1962 66.1539 84.1779 65.7223 84.1734 67.0465C84.1734 67.7041 83.5963 68.1086 82.7891 68.1086C82.2349 68.1055 81.7011 67.898 81.2899 67.5255L81.5581 66.99C81.8945 67.3125 82.3355 67.5026 82.8004 67.5255C83.231 67.5255 83.4768 67.3628 83.4768 67.0736C83.4768 66.2533 81.495 66.712 81.495 65.4036C81.495 64.7732 82.0361 64.3777 82.832 64.3777C83.2946 64.375 83.748 64.5068 84.1373 64.7574V64.7574Z" fill="white"/>
<path d="M45.4043 72.28V72.6913H43.79V70.0022H44.2409V72.28H45.4043Z" fill="#00AEEF"/>
<path d="M47.7445 71.6699C47.7503 71.8821 47.6928 72.0913 47.5794 72.2705C47.466 72.4498 47.3017 72.5911 47.1078 72.6763C46.9138 72.7614 46.6988 72.7867 46.4904 72.7487C46.2821 72.7108 46.0897 72.6113 45.938 72.4632C45.7863 72.315 45.6822 72.1249 45.639 71.9171C45.5958 71.7092 45.6154 71.4932 45.6953 71.2967C45.7753 71.1001 45.9119 70.9319 46.0878 70.8136C46.2637 70.6953 46.4708 70.6324 46.6826 70.6327C46.822 70.6238 46.9618 70.6442 47.0929 70.6928C47.224 70.7414 47.3434 70.817 47.4435 70.9148C47.5436 71.0126 47.6221 71.1303 47.6739 71.2604C47.7258 71.3904 47.7498 71.53 47.7445 71.6699V71.6699ZM46.0581 71.6699C46.0647 71.7921 46.1068 71.9096 46.1794 72.008C46.2519 72.1064 46.3516 72.1813 46.4661 72.2235C46.5806 72.2657 46.705 72.2734 46.8238 72.2456C46.9427 72.2177 47.0507 72.1556 47.1347 72.0668C47.2187 71.9781 47.2749 71.8666 47.2964 71.7462C47.3179 71.6258 47.3037 71.5017 47.2556 71.3893C47.2075 71.2769 47.1276 71.1811 47.0258 71.1137C46.9239 71.0463 46.8046 71.0103 46.6826 71.0101C46.5968 71.0086 46.5118 71.025 46.4327 71.0584C46.3537 71.0918 46.2825 71.1413 46.2237 71.2039C46.165 71.2664 46.1198 71.3406 46.0913 71.4216C46.0628 71.5027 46.0515 71.5888 46.0581 71.6745V71.6699Z" fill="#00AEEF"/>
<path d="M48.6463 71.0553C48.7092 70.923 48.8098 70.8123 48.9354 70.7371C49.0609 70.6619 49.2059 70.6256 49.352 70.6327V71.0553C49.2678 71.043 49.182 71.0482 49.1 71.0706C49.0179 71.093 48.9414 71.1322 48.8751 71.1857C48.8089 71.2391 48.7544 71.3057 48.715 71.3813C48.6756 71.4568 48.6522 71.5397 48.6463 71.6247V72.6936H48.1954V70.6598H48.6463V71.0553Z" fill="#00AEEF"/>
<path d="M51.5659 72.6913H51.115V72.2913C51.0486 72.4254 50.9439 72.5365 50.8142 72.6106C50.6845 72.6846 50.5357 72.7183 50.3868 72.7071C50.2836 72.7134 50.1804 72.697 50.0842 72.659C49.9881 72.621 49.9014 72.5623 49.8303 72.4872C49.7591 72.412 49.7053 72.3221 49.6725 72.2239C49.6398 72.1257 49.6288 72.0214 49.6405 71.9185V70.6462H50.0915V71.7942C50.0851 71.8592 50.093 71.9248 50.1144 71.9865C50.1358 72.0482 50.1703 72.1045 50.2155 72.1515C50.2607 72.1986 50.3156 72.2352 50.3763 72.259C50.437 72.2827 50.5021 72.293 50.5672 72.2891C50.6467 72.2873 50.7251 72.2691 50.7972 72.2354C50.8694 72.2017 50.9338 72.1534 50.9863 72.0935C51.0389 72.0336 51.0785 71.9634 51.1026 71.8874C51.1267 71.8114 51.1347 71.7312 51.1263 71.6518V70.6462H51.5772L51.5659 72.6913Z" fill="#00AEEF"/>
<path d="M55.6219 71.4191V72.6913H55.171V71.5433C55.1781 71.4774 55.1707 71.4106 55.1492 71.3479C55.1277 71.2851 55.0927 71.2279 55.0466 71.1802C55.0006 71.1325 54.9446 71.0956 54.8827 71.0721C54.8208 71.0485 54.7545 71.0389 54.6885 71.0439C54.6092 71.0463 54.5311 71.0651 54.4593 71.099C54.3875 71.1328 54.3234 71.1811 54.2709 71.2409C54.2185 71.3007 54.1789 71.3706 54.1545 71.4463C54.1302 71.5221 54.1216 71.602 54.1294 71.6812V72.6913H53.6785V71.5433C53.6855 71.4778 53.6782 71.4115 53.6569 71.349C53.6357 71.2866 53.6011 71.2296 53.5556 71.182C53.51 71.1345 53.4546 71.0974 53.3933 71.0736C53.332 71.0497 53.2662 71.0396 53.2005 71.0439C53.1206 71.0458 53.0419 71.0641 52.9693 71.0976C52.8968 71.1312 52.8318 71.1793 52.7786 71.2391C52.7253 71.2988 52.6848 71.3689 52.6597 71.4449C52.6345 71.521 52.6252 71.6014 52.6324 71.6812V72.6913H52.2153V70.6575H52.6527V71.053C52.7207 70.9181 52.8275 70.8068 52.9594 70.7335C53.0912 70.6601 53.242 70.6282 53.3921 70.6417C53.5493 70.6279 53.7062 70.6697 53.8359 70.7596C53.9656 70.8496 54.0598 70.9821 54.1023 71.1343C54.1586 70.978 54.265 70.8447 54.405 70.7556C54.545 70.6664 54.7105 70.6263 54.8756 70.6417C54.9777 70.6357 55.0799 70.6519 55.1752 70.6892C55.2705 70.7266 55.3565 70.7842 55.4274 70.8581C55.4984 70.9319 55.5525 71.0203 55.586 71.1172C55.6196 71.214 55.6318 71.317 55.6219 71.4191Z" fill="#00AEEF"/>
<path d="M57.2271 72.6913V70.0022H57.678V72.6913H57.2271Z" fill="#EC008C"/>
<path d="M60.503 71.6767C60.503 72.2868 60.1197 72.7071 59.538 72.7071C59.396 72.7155 59.2542 72.6858 59.1274 72.6211C59.0006 72.5564 58.8933 72.4589 58.8166 72.3388V73.4415H58.3657V70.6485H58.8166V71.001C58.8922 70.8819 58.998 70.7851 59.1231 70.7204C59.2483 70.6556 59.3884 70.6254 59.529 70.6327C60.1084 70.6327 60.503 71.0552 60.503 71.6767ZM60.0521 71.6608C60.0416 71.5403 59.9963 71.4253 59.9217 71.3301C59.8472 71.2349 59.7466 71.1634 59.6323 71.1245C59.518 71.0856 59.3948 71.0808 59.2778 71.1109C59.1608 71.1409 59.0551 71.2044 58.9735 71.2936C58.8919 71.3828 58.8379 71.4939 58.8182 71.6134C58.7985 71.7328 58.8139 71.8554 58.8626 71.9662C58.9112 72.0769 58.9909 72.1712 59.092 72.2373C59.1932 72.3035 59.3113 72.3387 59.4321 72.3388C59.5189 72.3404 59.6051 72.3236 59.6851 72.2896C59.765 72.2556 59.8369 72.2051 59.8961 72.1413C59.9552 72.0775 60.0003 72.002 60.0283 71.9196C60.0564 71.8372 60.0668 71.7498 60.0588 71.6631L60.0521 71.6608Z" fill="#EC008C"/>
<path d="M62.2841 70.8361L62.124 71.1615C61.9475 71.0514 61.7455 70.9891 61.5378 70.9807C61.3642 70.9807 61.238 71.0372 61.238 71.1841C61.238 71.5615 62.3224 71.3558 62.3179 72.088C62.3179 72.506 61.9459 72.6959 61.5356 72.6959C61.237 72.7012 60.9463 72.6003 60.7149 72.4111L60.8727 72.097C61.0638 72.2545 61.3018 72.3435 61.5491 72.3501C61.7362 72.3501 61.8828 72.2846 61.8828 72.1241C61.8828 71.7061 60.8096 71.9388 60.8141 71.2022C60.8141 70.7886 61.1748 70.6101 61.5649 70.6101C61.8217 70.612 62.0721 70.6907 62.2841 70.8361V70.8361Z" fill="#EC008C"/>
<path d="M64.613 72.6913H64.1621V72.2913C64.0957 72.4254 63.9909 72.5365 63.8612 72.6106C63.7315 72.6846 63.5827 72.7183 63.4338 72.7071C63.3307 72.7134 63.2274 72.697 63.1313 72.659C63.0351 72.621 62.9484 72.5623 62.8773 72.4872C62.8062 72.412 62.7524 72.3221 62.7196 72.2239C62.6868 72.1257 62.6759 72.0214 62.6876 71.9185V70.6462H63.1385V71.7942C63.1322 71.8592 63.14 71.9248 63.1614 71.9865C63.1829 72.0482 63.2174 72.1045 63.2626 72.1515C63.3078 72.1986 63.3626 72.2352 63.4233 72.259C63.484 72.2827 63.5492 72.293 63.6142 72.2891C63.6938 72.2873 63.7721 72.2691 63.8443 72.2354C63.9164 72.2017 63.9808 72.1534 64.0334 72.0935C64.0859 72.0336 64.1255 71.9634 64.1496 71.8874C64.1737 71.8114 64.1818 71.7312 64.1733 71.6518V70.6462H64.6242L64.613 72.6913Z" fill="#EC008C"/>
<path d="M68.6712 71.4191V72.6913H68.2203V71.5433C68.2274 71.4774 68.22 71.4106 68.1985 71.3479C68.177 71.2851 68.142 71.2279 68.0959 71.1802C68.0499 71.1325 67.9939 71.0956 67.932 71.0721C67.8701 71.0485 67.8038 71.0389 67.7378 71.0439C67.6584 71.0463 67.5804 71.0651 67.5086 71.099C67.4368 71.1328 67.3726 71.1811 67.3202 71.2409C67.2678 71.3007 67.2282 71.3706 67.2038 71.4463C67.1795 71.5221 67.1709 71.602 67.1787 71.6812V72.6913H66.7278V71.5433C66.7348 71.4778 66.7275 71.4115 66.7062 71.349C66.685 71.2866 66.6504 71.2296 66.6048 71.182C66.5593 71.1345 66.5039 71.0974 66.4426 71.0736C66.3812 71.0497 66.3154 71.0396 66.2498 71.0439C66.1699 71.0458 66.0912 71.0641 66.0186 71.0976C65.946 71.1312 65.8811 71.1793 65.8278 71.2391C65.7746 71.2988 65.7341 71.3689 65.709 71.4449C65.6838 71.521 65.6745 71.6014 65.6816 71.6812V72.6913H65.2443V70.6575H65.6816V71.053C65.7497 70.9181 65.8565 70.8068 65.9883 70.7335C66.1202 70.6601 66.271 70.6282 66.4211 70.6417C66.5779 70.6285 66.7343 70.6705 66.8635 70.7604C66.9927 70.8503 67.0866 70.9825 67.1291 71.1343C67.1853 70.978 67.2918 70.8447 67.4317 70.7556C67.5717 70.6664 67.7372 70.6263 67.9024 70.6417C68.0063 70.6322 68.111 70.6458 68.2091 70.6816C68.3071 70.7174 68.3961 70.7745 68.4695 70.8488C68.543 70.9231 68.5992 71.0127 68.634 71.1113C68.6689 71.2099 68.6816 71.315 68.6712 71.4191V71.4191Z" fill="#EC008C"/>
<path d="M71.3744 70.0022C71.5652 69.9782 71.759 69.9952 71.9428 70.0522C72.1265 70.1092 72.296 70.2048 72.44 70.3327C72.584 70.4605 72.6991 70.6177 72.7777 70.7937C72.8562 70.9696 72.8964 71.1604 72.8956 71.3532C72.8948 71.546 72.853 71.7364 72.773 71.9117C72.6929 72.087 72.5765 72.2432 72.4315 72.3698C72.2864 72.4964 72.1161 72.5906 71.9319 72.6461C71.7477 72.7015 71.5538 72.7169 71.3631 72.6913H70.2742V70.0022H71.3744ZM70.7273 72.2845H71.3857C71.5081 72.2871 71.6298 72.2645 71.7433 72.2184C71.8567 72.1722 71.9597 72.1034 72.0457 72.0161C72.1318 71.9287 72.1992 71.8248 72.2439 71.7105C72.2886 71.5962 72.3095 71.474 72.3055 71.3513C72.3086 71.2268 72.2864 71.1029 72.2402 70.9873C72.1941 70.8717 72.1249 70.7668 72.0369 70.6788C71.949 70.5909 71.8441 70.5218 71.7286 70.4758C71.6132 70.4298 71.4896 70.4078 71.3654 70.4112H70.7251L70.7273 72.2845Z" fill="#FFF100"/>
<path d="M75.153 71.6699C75.1588 71.8821 75.1013 72.0913 74.9879 72.2705C74.8745 72.4498 74.7103 72.5911 74.5163 72.6763C74.3223 72.7614 74.1073 72.7867 73.8989 72.7487C73.6906 72.7108 73.4982 72.6113 73.3465 72.4632C73.1949 72.315 73.0907 72.1249 73.0475 71.9171C73.0043 71.7092 73.0239 71.4932 73.1038 71.2967C73.1838 71.1001 73.3205 70.9319 73.4963 70.8136C73.6722 70.6953 73.8793 70.6324 74.0911 70.6327C74.2305 70.6238 74.3703 70.6442 74.5014 70.6928C74.6325 70.7414 74.7519 70.817 74.852 70.9148C74.9521 71.0126 75.0306 71.1303 75.0824 71.2604C75.1343 71.3904 75.1583 71.53 75.153 71.6699V71.6699ZM73.4666 71.6699C73.4732 71.7921 73.5153 71.9096 73.5879 72.008C73.6604 72.1064 73.7601 72.1813 73.8746 72.2235C73.9891 72.2657 74.1135 72.2734 74.2323 72.2456C74.3512 72.2177 74.4593 72.1556 74.5432 72.0668C74.6272 71.9781 74.6834 71.8666 74.7049 71.7462C74.7264 71.6258 74.7122 71.5017 74.6641 71.3893C74.616 71.2769 74.5361 71.1811 74.4343 71.1137C74.3324 71.0463 74.2131 71.0103 74.0911 71.0101C74.0054 71.0086 73.9203 71.025 73.8413 71.0584C73.7622 71.0918 73.6911 71.1413 73.6323 71.2039C73.5735 71.2664 73.5284 71.3406 73.4998 71.4216C73.4713 71.5027 73.46 71.5888 73.4666 71.6745V71.6699Z" fill="#FFF100"/>
<path d="M75.6309 72.6913V69.8418H76.0818V72.6913H75.6309Z" fill="#FFF100"/>
<path d="M78.6836 71.6699C78.6894 71.8821 78.632 72.0913 78.5185 72.2705C78.4051 72.4498 78.2409 72.5911 78.0469 72.6763C77.8529 72.7614 77.638 72.7867 77.4296 72.7487C77.2212 72.7108 77.0289 72.6113 76.8772 72.4632C76.7255 72.315 76.6214 72.1249 76.5781 71.9171C76.5349 71.7092 76.5545 71.4932 76.6345 71.2967C76.7144 71.1001 76.8511 70.9319 77.027 70.8136C77.2028 70.6953 77.4099 70.6324 77.6217 70.6327C77.7612 70.6238 77.901 70.6442 78.032 70.6928C78.1631 70.7414 78.2826 70.817 78.3826 70.9148C78.4827 71.0126 78.5612 71.1303 78.6131 71.2604C78.6649 71.3904 78.6889 71.53 78.6836 71.6699V71.6699ZM76.9972 71.6699C77.0038 71.7921 77.046 71.9096 77.1185 72.008C77.191 72.1064 77.2907 72.1813 77.4052 72.2235C77.5198 72.2657 77.6441 72.2734 77.763 72.2456C77.8818 72.2177 77.9899 72.1556 78.0739 72.0668C78.1579 71.9781 78.2141 71.8666 78.2356 71.7462C78.257 71.6258 78.2429 71.5017 78.1948 71.3893C78.1467 71.2769 78.0667 71.1811 77.9649 71.1137C77.8631 71.0463 77.7438 71.0103 77.6217 71.0101C77.5354 71.0076 77.4496 71.0234 77.3698 71.0563C77.2899 71.0892 77.2179 71.1386 77.1584 71.2013C77.0989 71.264 77.0531 71.3385 77.0242 71.42C76.9953 71.5015 76.9838 71.5882 76.9904 71.6745L76.9972 71.6699Z" fill="#FFF100"/>
<path d="M79.5854 71.0553C79.6484 70.923 79.749 70.8123 79.8745 70.7371C80.0001 70.6619 80.145 70.6256 80.2911 70.6327V71.0553C80.2062 71.0429 80.1197 71.0484 80.0371 71.0714C79.9545 71.0944 79.8775 71.1343 79.8111 71.1887C79.7448 71.2432 79.6904 71.3108 79.6516 71.3875C79.6127 71.4641 79.5902 71.548 79.5854 71.6338V72.7027H79.1345V70.6689H79.5854V71.0553Z" fill="#FFF100"/>
</g>
<defs>
<clipPath id="clip0">
<rect width="124" height="87" fill="white"/>
</clipPath>
</defs>
</svg>
