<svg width="382" height="391" viewBox="0 0 382 391" fill="none" xmlns="http://www.w3.org/2000/svg">
<ellipse cx="191" cy="195.5" rx="191" ry="195.5" fill="black"/>
<path d="M307.938 298H271.094V177.906L206.266 291.953C204.672 294.859 202.422 297.062 199.516 298.562C196.703 300.062 193.656 300.812 190.375 300.812C187.188 300.812 184.188 300.062 181.375 298.562C178.656 297.062 176.5 294.859 174.906 291.953L109.797 177.906V298H73.2344V111.953C73.2344 107.734 74.4531 103.984 76.8906 100.703C79.4219 97.4219 82.7031 95.2188 86.7344 94.0938C88.7031 93.625 90.6719 93.4844 92.6406 93.6719C94.6094 93.7656 96.4844 94.1875 98.2656 94.9375C100.141 95.5938 101.828 96.5781 103.328 97.8906C104.828 99.1094 106.094 100.609 107.125 102.391L190.375 247.094L273.625 102.391C275.781 98.8281 278.734 96.2969 282.484 94.7969C286.328 93.2969 290.312 93.0625 294.438 94.0938C298.375 95.2188 301.609 97.4219 304.141 100.703C306.672 103.984 307.938 107.734 307.938 111.953V298Z" fill="#FFFCFC"/>
<path d="M128.836 335.109C128.836 336.312 128.68 337.398 128.367 338.367C128.07 339.32 127.672 340.164 127.172 340.898C126.672 341.633 126.086 342.258 125.414 342.773C124.742 343.289 124.047 343.711 123.328 344.039C122.609 344.367 121.875 344.609 121.125 344.766C120.391 344.922 119.695 345 119.039 345H95.5312V338.906H119.039C120.211 338.906 121.117 338.562 121.758 337.875C122.414 337.188 122.742 336.266 122.742 335.109C122.742 334.547 122.656 334.031 122.484 333.562C122.312 333.094 122.062 332.688 121.734 332.344C121.422 332 121.031 331.734 120.562 331.547C120.109 331.359 119.602 331.266 119.039 331.266H105.023C104.039 331.266 102.977 331.094 101.836 330.75C100.695 330.391 99.6328 329.82 98.6484 329.039C97.6797 328.258 96.8672 327.234 96.2109 325.969C95.5703 324.703 95.25 323.156 95.25 321.328C95.25 319.5 95.5703 317.961 96.2109 316.711C96.8672 315.445 97.6797 314.422 98.6484 313.641C99.6328 312.844 100.695 312.273 101.836 311.93C102.977 311.57 104.039 311.391 105.023 311.391H125.766V317.484H105.023C103.867 317.484 102.961 317.836 102.305 318.539C101.664 319.242 101.344 320.172 101.344 321.328C101.344 322.5 101.664 323.43 102.305 324.117C102.961 324.789 103.867 325.125 105.023 325.125H119.039H119.086C119.742 325.141 120.438 325.234 121.172 325.406C121.906 325.562 122.633 325.812 123.352 326.156C124.086 326.5 124.781 326.938 125.438 327.469C126.094 327.984 126.672 328.609 127.172 329.344C127.688 330.078 128.094 330.922 128.391 331.875C128.688 332.828 128.836 333.906 128.836 335.109ZM160.196 347.438C160.196 348.484 160.063 349.422 159.798 350.25C159.532 351.094 159.181 351.828 158.743 352.453C158.306 353.094 157.798 353.633 157.22 354.07C156.642 354.523 156.032 354.891 155.392 355.172C154.767 355.453 154.134 355.656 153.493 355.781C152.853 355.922 152.243 355.992 151.665 355.992H140.673V349.898H151.665C152.478 349.898 153.087 349.688 153.493 349.266C153.899 348.844 154.103 348.234 154.103 347.438V319.664H160.196V347.438ZM151.665 345H140.673C139.798 345 138.86 344.852 137.86 344.555C136.876 344.258 135.954 343.773 135.095 343.102C134.235 342.414 133.524 341.531 132.962 340.453C132.399 339.359 132.118 338.023 132.118 336.445V319.664H138.212V336.445C138.212 337.242 138.423 337.852 138.845 338.273C139.267 338.695 139.892 338.906 140.72 338.906H151.665V345ZM189.541 336.445C189.541 337.492 189.408 338.438 189.143 339.281C188.877 340.109 188.525 340.844 188.088 341.484C187.65 342.109 187.143 342.648 186.564 343.102C185.986 343.539 185.377 343.898 184.736 344.18C184.111 344.461 183.471 344.672 182.814 344.812C182.174 344.938 181.564 345 180.986 345H164.486V338.906H180.939C181.768 338.906 182.393 338.695 182.814 338.273C183.236 337.852 183.447 337.242 183.447 336.445C183.369 334.82 182.549 334.008 180.986 334.008H171.541C170.197 334.008 169.057 333.773 168.119 333.305C167.182 332.836 166.416 332.25 165.822 331.547C165.244 330.844 164.822 330.086 164.557 329.273C164.307 328.461 164.182 327.703 164.182 327C164.182 325.641 164.424 324.5 164.908 323.578C165.393 322.641 166.002 321.883 166.736 321.305C167.471 320.727 168.268 320.312 169.127 320.062C169.986 319.797 170.791 319.664 171.541 319.664H186.518V325.758H171.588C171.275 325.758 171.025 325.797 170.838 325.875C170.666 325.938 170.533 326.031 170.439 326.156C170.361 326.266 170.314 326.391 170.299 326.531C170.283 326.656 170.275 326.781 170.275 326.906C170.291 327.156 170.338 327.352 170.416 327.492C170.494 327.633 170.588 327.734 170.697 327.797C170.822 327.859 170.955 327.898 171.096 327.914C171.252 327.914 171.4 327.914 171.541 327.914H180.986C182.549 327.914 183.877 328.195 184.971 328.758C186.064 329.32 186.947 330.031 187.619 330.891C188.291 331.734 188.775 332.656 189.072 333.656C189.385 334.656 189.541 335.586 189.541 336.445ZM215.487 325.758H204.847V345H198.683V325.758H190.761V319.664H198.683V311.391H204.847V319.664H215.487V325.758ZM245.699 328.055C245.699 328.898 245.551 329.812 245.254 330.797C244.957 331.766 244.473 332.672 243.801 333.516C243.144 334.344 242.277 335.039 241.199 335.602C240.137 336.164 238.84 336.445 237.308 336.445H226.316V330.656H237.308C238.137 330.656 238.777 330.406 239.23 329.906C239.683 329.391 239.91 328.758 239.91 328.008C239.91 327.211 239.652 326.586 239.137 326.133C238.637 325.68 238.027 325.453 237.308 325.453H226.316C225.488 325.453 224.848 325.711 224.394 326.227C223.941 326.727 223.715 327.352 223.715 328.102V336.609C223.715 337.422 223.965 338.055 224.465 338.508C224.98 338.961 225.613 339.188 226.363 339.188H237.308V345H226.316C225.473 345 224.558 344.852 223.574 344.555C222.605 344.258 221.699 343.781 220.855 343.125C220.027 342.453 219.332 341.586 218.769 340.523C218.207 339.445 217.926 338.141 217.926 336.609V328.055C217.926 327.211 218.074 326.305 218.371 325.336C218.668 324.352 219.144 323.445 219.801 322.617C220.473 321.773 221.34 321.07 222.402 320.508C223.48 319.945 224.785 319.664 226.316 319.664H237.308C238.152 319.664 239.058 319.812 240.027 320.109C241.012 320.406 241.918 320.891 242.746 321.562C243.59 322.219 244.293 323.086 244.855 324.164C245.418 325.227 245.699 326.523 245.699 328.055ZM271.458 345H265.364V328.195C265.364 327.398 265.153 326.797 264.731 326.391C264.309 325.969 263.684 325.758 262.856 325.758H254.934V345H248.841V322.688C248.841 322.266 248.919 321.875 249.075 321.516C249.231 321.141 249.45 320.82 249.731 320.555C250.012 320.273 250.341 320.055 250.716 319.898C251.091 319.742 251.489 319.664 251.911 319.664H262.903C263.747 319.664 264.653 319.812 265.622 320.109C266.591 320.406 267.512 320.883 268.387 321.539V319.664H276.637C277.216 319.664 277.825 319.734 278.466 319.875C279.106 320 279.739 320.203 280.364 320.484C281.005 320.766 281.614 321.133 282.192 321.586C282.77 322.023 283.278 322.562 283.716 323.203C284.153 323.828 284.505 324.555 284.77 325.383C285.036 326.211 285.169 327.148 285.169 328.195V345H279.075V328.195C279.075 327.398 278.872 326.797 278.466 326.391C278.075 325.969 277.466 325.758 276.637 325.758H271.153C271.356 326.508 271.458 327.32 271.458 328.195V345Z" fill="#FFFBFB"/>
<circle cx="91.7595" cy="65.7595" r="19.5" transform="rotate(0.767561 91.7595 65.7595)" fill="#CAB440"/>
<circle cx="287.759" cy="64.7595" r="19.5" transform="rotate(0.767561 287.759 64.7595)" fill="#3F59B5"/>
</svg>
