<svg width="30" height="30" viewBox="0 0 30 30" fill="none" xmlns="http://www.w3.org/2000/svg">
<path d="M29.9605 15C29.9605 23.264 23.2615 29.9616 14.9998 29.9616C6.73804 29.9616 0.039032 23.264 0.039032 15C0.039032 6.73606 6.73804 0.0383606 14.9998 0.0383606C23.2615 0.0383606 29.9605 6.73606 29.9605 15Z" fill="#FFFDFD"/>
<path d="M24.1836 22.8644H21.2901V13.6501L16.1989 22.4005C16.0737 22.6234 15.897 22.7925 15.6688 22.9076C15.4479 23.0227 15.2086 23.0802 14.9509 23.0802C14.7006 23.0802 14.465 23.0227 14.2441 22.9076C14.0306 22.7925 13.8613 22.6234 13.7361 22.4005L8.62281 13.6501V22.8644H5.7514V8.58974C5.7514 8.26603 5.84711 7.97831 6.03854 7.72657C6.23733 7.47482 6.49502 7.30579 6.81161 7.21947C6.96622 7.1835 7.12084 7.17271 7.27545 7.1871C7.43007 7.19429 7.57732 7.22666 7.71721 7.2842C7.86449 7.33456 7.99697 7.41008 8.11478 7.51078C8.23258 7.6043 8.332 7.71936 8.41297 7.85608L14.9509 18.9586L21.4889 7.85608C21.6582 7.58271 21.8901 7.3885 22.1846 7.27341C22.4865 7.15832 22.7994 7.14034 23.1234 7.21947C23.4326 7.30579 23.6866 7.47482 23.8854 7.72657C24.0842 7.97831 24.1836 8.26603 24.1836 8.58974V22.8644Z" fill="#010101"/>
<path d="M10.118 25.7117C10.118 25.804 10.1058 25.8873 10.0812 25.9616C10.0579 26.0348 10.0266 26.0995 9.98734 26.1558C9.94807 26.2122 9.90205 26.2602 9.84928 26.2997C9.7965 26.3393 9.74192 26.3717 9.68546 26.3968C9.62899 26.422 9.57135 26.4406 9.51245 26.4526C9.4548 26.4646 9.40014 26.4706 9.34862 26.4706H7.50246V26.003H9.34862C9.44067 26.003 9.51182 25.9766 9.56216 25.9239C9.61368 25.8712 9.63943 25.8004 9.63943 25.7117C9.63943 25.6686 9.63268 25.629 9.61917 25.593C9.60566 25.5571 9.58603 25.5259 9.56027 25.4995C9.53577 25.4731 9.50506 25.4527 9.46823 25.4384C9.43265 25.4239 9.39284 25.4168 9.34862 25.4168H8.24789C8.17061 25.4168 8.08721 25.4036 7.9976 25.3772C7.90799 25.3497 7.82458 25.3059 7.74727 25.2459C7.67119 25.186 7.60738 25.1075 7.55584 25.0104C7.50553 24.9133 7.48038 24.7946 7.48038 24.6543C7.48038 24.5141 7.50553 24.396 7.55584 24.3001C7.60738 24.2029 7.67119 24.1244 7.74727 24.0645C7.82458 24.0034 7.90799 23.9595 7.9976 23.9332C8.08721 23.9056 8.17061 23.8919 8.24789 23.8919H9.87692V24.3594H8.24789C8.15711 24.3594 8.08595 24.3864 8.03443 24.4403C7.98409 24.4943 7.95896 24.5656 7.95896 24.6543C7.95896 24.7442 7.98409 24.8156 8.03443 24.8683C8.08595 24.9199 8.15711 24.9456 8.24789 24.9456H9.34862H9.35231C9.40383 24.9469 9.45849 24.954 9.51614 24.9672C9.57378 24.9792 9.63087 24.9983 9.68734 25.0247C9.74498 25.0511 9.79957 25.0847 9.85116 25.1255C9.90268 25.165 9.94807 25.213 9.98734 25.2693C10.0279 25.3257 10.0597 25.3904 10.0831 25.4635C10.1064 25.5367 10.118 25.6194 10.118 25.7117ZM12.5808 26.6576C12.5808 26.7379 12.5704 26.8099 12.5496 26.8734C12.5287 26.9381 12.5011 26.9945 12.4667 27.0424C12.4324 27.0916 12.3925 27.133 12.3471 27.1665C12.3017 27.2012 12.2538 27.2295 12.2036 27.251C12.1545 27.2726 12.1048 27.2882 12.0544 27.2978C12.0042 27.3086 11.9563 27.3139 11.9109 27.3139H11.0476V26.8464H11.9109C11.9747 26.8464 12.0225 26.8303 12.0544 26.7979C12.0863 26.7655 12.1023 26.7187 12.1023 26.6576V24.5266H12.5808V26.6576ZM11.9109 26.4706H11.0476C10.9789 26.4706 10.9052 26.4592 10.8267 26.4364C10.7494 26.4136 10.677 26.3764 10.6096 26.3249C10.542 26.2722 10.4862 26.2044 10.4421 26.1217C10.3978 26.0378 10.3758 25.9353 10.3758 25.8142V24.5266H10.8544V25.8142C10.8544 25.8753 10.8709 25.9221 10.9041 25.9544C10.9372 25.9868 10.9863 26.003 11.0513 26.003H11.9109V26.4706ZM14.8854 25.8142C14.8854 25.8945 14.875 25.9671 14.8542 26.0318C14.8333 26.0953 14.8056 26.1517 14.7713 26.2008C14.7369 26.2488 14.6971 26.2901 14.6516 26.3249C14.6062 26.3585 14.5584 26.386 14.5081 26.4077C14.459 26.4292 14.4087 26.4454 14.3571 26.4561C14.3069 26.4658 14.259 26.4706 14.2136 26.4706H12.9178V26.003H14.2099C14.275 26.003 14.3241 25.9868 14.3571 25.9544C14.3903 25.9221 14.4068 25.8753 14.4068 25.8142C14.4007 25.6895 14.3363 25.6272 14.2136 25.6272H13.4718C13.3663 25.6272 13.2767 25.6092 13.2031 25.5733C13.1295 25.5373 13.0693 25.4923 13.0227 25.4384C12.9773 25.3844 12.9441 25.3263 12.9233 25.2639C12.9037 25.2016 12.8939 25.1434 12.8939 25.0895C12.8939 24.9852 12.9129 24.8977 12.9509 24.8269C12.989 24.755 13.0368 24.6969 13.0945 24.6525C13.1522 24.6082 13.2148 24.5764 13.2822 24.5572C13.3497 24.5368 13.4129 24.5266 13.4718 24.5266H14.648V24.9942H13.4755C13.4509 24.9942 13.4313 24.9972 13.4166 25.0032C13.4031 25.008 13.3927 25.0152 13.3853 25.0247C13.3791 25.0332 13.3755 25.0428 13.3743 25.0535C13.373 25.0631 13.3724 25.0727 13.3724 25.0823C13.3736 25.1015 13.3773 25.1165 13.3835 25.1272C13.3896 25.1381 13.397 25.1458 13.4055 25.1506C13.4154 25.1554 13.4258 25.1584 13.4369 25.1596C13.4491 25.1596 13.4607 25.1596 13.4718 25.1596H14.2136C14.3363 25.1596 14.4406 25.1812 14.5265 25.2244C14.6124 25.2675 14.6817 25.3221 14.7345 25.388C14.7873 25.4527 14.8253 25.5235 14.8486 25.6002C14.8732 25.6769 14.8854 25.7483 14.8854 25.8142ZM16.9231 24.9942H16.0875V26.4706H15.6034V24.9942H14.9812V24.5266H15.6034V23.8919H16.0875V24.5266H16.9231V24.9942ZM19.2957 25.1704C19.2957 25.2351 19.2841 25.3053 19.2608 25.3808C19.2375 25.4552 19.1995 25.5247 19.1467 25.5894C19.0951 25.653 19.027 25.7063 18.9423 25.7495C18.8589 25.7926 18.7571 25.8142 18.6368 25.8142H17.7735V25.37H18.6368C18.7019 25.37 18.7521 25.3508 18.7877 25.3125C18.8233 25.273 18.8411 25.2244 18.8411 25.1668C18.8411 25.1057 18.8208 25.0577 18.7804 25.023C18.7411 24.9882 18.6932 24.9708 18.6368 24.9708H17.7735C17.7085 24.9708 17.6582 24.9906 17.6226 25.0302C17.587 25.0686 17.5693 25.1165 17.5693 25.174V25.8268C17.5693 25.8891 17.5889 25.9377 17.6282 25.9725C17.6686 26.0072 17.7183 26.0246 17.7772 26.0246H18.6368V26.4706H17.7735C17.7073 26.4706 17.6355 26.4592 17.5582 26.4364C17.4821 26.4136 17.4109 26.377 17.3446 26.3267C17.2796 26.2751 17.225 26.2086 17.1808 26.1271C17.1367 26.0444 17.1146 25.9443 17.1146 25.8268V25.1704C17.1146 25.1057 17.1262 25.0362 17.1496 24.9618C17.1729 24.8863 17.2103 24.8167 17.2619 24.7532C17.3146 24.6884 17.3827 24.6345 17.4661 24.5914C17.5508 24.5482 17.6533 24.5266 17.7735 24.5266H18.6368C18.703 24.5266 18.7742 24.538 18.8503 24.5608C18.9277 24.5836 18.9988 24.6208 19.0638 24.6723C19.1301 24.7227 19.1853 24.7892 19.2295 24.8719C19.2737 24.9535 19.2957 25.0529 19.2957 25.1704ZM21.3187 26.4706H20.8401V25.1812C20.8401 25.12 20.8235 25.0739 20.7904 25.0428C20.7573 25.0104 20.7082 24.9942 20.6431 24.9942H20.021V26.4706H19.5425V24.7587C19.5425 24.7263 19.5486 24.6963 19.5609 24.6687C19.5731 24.64 19.5903 24.6153 19.6124 24.595C19.6345 24.5734 19.6603 24.5566 19.6897 24.5446C19.7192 24.5326 19.7505 24.5266 19.7836 24.5266H20.6468C20.7131 24.5266 20.7843 24.538 20.8604 24.5608C20.9365 24.5836 21.0088 24.6202 21.0775 24.6705V24.5266H21.7254C21.7709 24.5266 21.8187 24.532 21.8691 24.5428C21.9193 24.5524 21.969 24.568 22.0181 24.5895C22.0685 24.6112 22.1163 24.6393 22.1617 24.6741C22.2071 24.7076 22.247 24.749 22.2814 24.7982C22.3157 24.8461 22.3433 24.9019 22.3641 24.9654C22.385 25.029 22.3955 25.1009 22.3955 25.1812V26.4706H21.9169V25.1812C21.9169 25.12 21.901 25.0739 21.8691 25.0428C21.8384 25.0104 21.7905 24.9942 21.7254 24.9942H21.2947C21.3107 25.0517 21.3187 25.1141 21.3187 25.1812V26.4706Z" fill="#201F1F"/>
<path d="M7.18626 6.50317C8.01027 6.51395 8.68722 5.87007 8.69826 5.06503C8.7093 4.25998 8.05025 3.59861 7.22624 3.58783C6.40222 3.57704 5.72527 4.22092 5.71423 5.02597C5.70319 5.83102 6.36224 6.49238 7.18626 6.50317Z" fill="#D1B522" stroke="black" stroke-width="0.1"/>
<path d="M22.5789 6.42644C23.4029 6.43723 24.0799 5.79335 24.0909 4.9883C24.1019 4.18326 23.4429 3.52189 22.6189 3.51111C21.7949 3.50032 21.1179 4.1442 21.1069 4.94925C21.0958 5.75429 21.7549 6.41566 22.5789 6.42644Z" fill="#1C39A2" stroke="black" stroke-width="0.1"/>
</svg>
